<svg width="16" height="16" viewBox="0 0 16 16" fill="none" xmlns="http://www.w3.org/2000/svg">
<path d="M5.52308 13.0025C2.29231 14.0013 2.29231 11.338 1 11.0051M10.0462 15V12.4233C10.0704 12.1058 10.0288 11.7866 9.92404 11.487C9.81932 11.1874 9.65389 10.9142 9.43877 10.6855C11.4677 10.4525 13.6 9.66015 13.6 6.02478C13.5998 5.09519 13.2528 4.20124 12.6308 3.52797C12.9253 2.71468 12.9045 1.81572 12.5726 1.01784C12.5726 1.01784 11.8102 0.784803 10.0462 2.00325C8.56517 1.58966 7.00406 1.58966 5.52308 2.00325C3.75908 0.784803 2.99662 1.01784 2.99662 1.01784C2.66474 1.81572 2.64391 2.71468 2.93846 3.52797C2.31177 4.20624 1.9644 5.10826 1.96923 6.04476C1.96923 9.65349 4.10154 10.4458 6.13046 10.7055C5.91788 10.9318 5.75392 11.2018 5.64928 11.4977C5.54463 11.7937 5.50163 12.1091 5.52308 12.4233V15" stroke="#1F1F1F" stroke-width="1.25" stroke-linecap="round" stroke-linejoin="round"/>
</svg>
