<svg xmlns="http://www.w3.org/2000/svg" aria-hidden="true" style="position:absolute;width:0;height:0;overflow:hidden">
  <defs>
    <symbol id="icon-chevron-bottom" viewBox="0 0 32 32">
      <path stroke-linecap="round" stroke-linejoin="round" stroke-width="3.2" d="M16 23.2 1.6 8.8M30.4 8.8 16 23.2"/>
    </symbol>
    <symbol id="icon-ghIcon" viewBox="0 0 32 32">
      <path stroke-linecap="round" stroke-linejoin="round" stroke-width="2.5" d="M11.046 26.005C4.584 28.003 4.584 22.676 2 22.01M20.092 30v-5.153c.048-.635-.035-1.273-.244-1.873s-.54-1.146-.971-1.603c4.058-.466 8.322-2.051 8.322-9.321a7.364 7.364 0 0 0-1.938-4.994 6.946 6.946 0 0 0-.116-5.02s-1.525-.466-5.053 1.971a16.801 16.801 0 0 0-9.046 0C7.518 1.57 5.993 2.036 5.993 2.036a6.94 6.94 0 0 0-.116 5.02 7.366 7.366 0 0 0-1.938 5.034c0 7.217 4.265 8.802 8.322 9.321-.425.453-.753.993-.962 1.584s-.295 1.223-.252 1.851v5.153"/>
    </symbol>
    <symbol id="icon-icons8-github" viewBox="0 0 32 32">
      <path d="M11.386 29.975a1.28 1.28 0 0 0 .774-1.175v-3.456c0-.126.01-.257.026-.39l-.026.006H9.856c-.96 0-1.792-.384-2.176-1.152-.448-.832-.64-2.24-1.792-3.008-.192-.128-.064-.32.32-.32.384.064 1.216.576 1.728 1.28.576.704 1.152 1.28 2.176 1.28 1.592 0 2.445-.08 2.958-.355.598-.889 1.425-1.565 2.29-1.565v-.016c-3.628-.116-5.945-1.322-7.024-3.184-2.346.027-4.388.259-5.553.452-.037-.209-.069-.42-.097-.632 1.15-.189 3.1-.414 5.341-.457a5.109 5.109 0 0 1-.186-.543 41.363 41.363 0 0 0-5.24.062c-.013-.212-.03-.424-.033-.639a41.97 41.97 0 0 1 5.132-.071 6.241 6.241 0 0 1-.083-.988c0-1.088.384-2.24 1.088-3.2-.32-1.088-.768-3.392.128-4.224 1.728 0 2.944.832 3.52 1.344 1.087-.449 2.303-.705 3.647-.705s2.56.256 3.584.704c.576-.512 1.792-1.344 3.52-1.344.96.896.448 3.2.128 4.224.704.96 1.088 2.048 1.024 3.2 0 .31-.029.609-.07.902a42.326 42.326 0 0 1 5.251.065c-.001.216-.021.426-.033.639a41.569 41.569 0 0 0-5.35-.057 5.293 5.293 0 0 1-.208.627c2.269.029 4.266.249 5.471.441-.028.212-.06.423-.097.632-1.224-.196-3.309-.425-5.683-.436-1.066 1.842-3.341 3.043-6.897 3.183v.02c1.664 0 3.2 2.496 3.2 4.224v3.456c0 .527.319.979.774 1.175 5.863-1.94 10.106-7.47 10.106-13.975 0-8.116-6.603-14.72-14.72-14.72S1.28 7.883 1.28 15.999c0 6.505 4.243 12.035 10.106 13.975z"/>
    </symbol>
    <symbol id="icon-icons8-linkedin" viewBox="0 0 32 32">
      <path d="M26.24 2.56H5.76a3.202 3.202 0 0 0-3.2 3.2v20.48c0 1.766 1.434 3.2 3.2 3.2h20.48c1.766 0 3.2-1.434 3.2-3.2V5.76c0-1.766-1.434-3.2-3.2-3.2zM10.88 12.8v12.16H7.04V12.8h3.84zM7.04 9.261c0-.896.768-1.581 1.92-1.581s1.875.685 1.92 1.581c0 .896-.717 1.619-1.92 1.619-1.152 0-1.92-.723-1.92-1.619zM24.96 24.96h-3.84v-6.4c0-1.28-.64-2.56-2.24-2.586h-.051c-1.549 0-2.189 1.318-2.189 2.586v6.4H12.8V12.8h3.84v1.638s1.235-1.638 3.718-1.638c2.541 0 4.602 1.747 4.602 5.286v6.874z"/>
    </symbol>
    <symbol id="icon-icons8-telegram-app" viewBox="0 0 32 32">
      <path d="M29.528 4.193c-.48-.407-1.234-.465-2.013-.152h-.001c-.82.329-23.207 9.932-24.118 10.324-.166.058-1.613.598-1.464 1.801.133 1.085 1.297 1.534 1.439 1.586l5.692 1.949c.378 1.257 1.77 5.894 2.077 6.885.192.618.505 1.429 1.053 1.596.481.186.96.016 1.27-.227l3.48-3.228 5.617 4.381.134.08c.381.169.747.253 1.096.253.269 0 .528-.051.775-.152.842-.346 1.178-1.148 1.213-1.238l4.196-21.809c.256-1.165-.1-1.757-.444-2.049zM14.08 20.48l-1.92 5.12-1.92-6.4L24.96 8.32 14.08 20.48z"/>
    </symbol>
    <symbol id="icon-linkIcon" viewBox="0 0 32 32">
      <path d="M23.333 28H4.666a4.667 4.667 0 0 1-4.667-4.667V4.666A4.667 4.667 0 0 1 4.666-.001h6.222a1.555 1.555 0 0 1 1.1 2.656 1.555 1.555 0 0 1-1.1.456H4.666A1.555 1.555 0 0 0 3.11 4.667v18.667a1.556 1.556 0 0 0 1.556 1.556h18.667a1.556 1.556 0 0 0 1.556-1.556v-6.222a1.555 1.555 0 0 1 2.656-1.1c.292.292.456.687.456 1.1v6.222a4.667 4.667 0 0 1-4.667 4.667z"/>
      <path d="M28 1.633v7.778a1.56 1.56 0 0 1-.965 1.432c-.185.087-.387.13-.591.124a1.562 1.562 0 0 1-1.104-.451l-2.862-2.738-7.451 7.451a1.563 1.563 0 0 1-1.104.461 1.554 1.554 0 0 1-1.104-.461 1.563 1.563 0 0 1-.461-1.104 1.554 1.554 0 0 1 .461-1.104l7.404-7.498-2.738-2.784c-.224-.213-.379-.489-.445-.791s-.041-.617.072-.905a1.554 1.554 0 0 1 1.556-.964h7.778c.129-.022.26-.022.389 0a.571.571 0 0 1 .218 0 1.466 1.466 0 0 1 .825.825.571.571 0 0 1 0 .218c.081.159.124.335.124.513z"/>
    </symbol>
    <symbol id="icon-burger-menu" viewBox="0 0 32 32">
      <path d="M5.333 6.667a1.333 1.333 0 0 0 0 2.666h21.333a1.333 1.333 0 0 0 0-2.666H5.333zm4 9.333c0-.736.597-1.333 1.333-1.333h16a1.333 1.333 0 0 1 0 2.666h-16A1.333 1.333 0 0 1 9.333 16zm8 8c0-.736.597-1.333 1.333-1.333h8a1.333 1.333 0 0 1 0 2.666h-8A1.333 1.333 0 0 1 17.333 24z"/>
    </symbol>
  </defs>
</svg>
