<svg width="16" height="16" viewBox="0 0 16 16" fill="none" xmlns="http://www.w3.org/2000/svg">
<path d="M11.6667 14H2.33333C1.71449 14 1.121 13.7542 0.683418 13.3166C0.245833 12.879 0 12.2855 0 11.6667V2.33333C0 1.71449 0.245833 1.121 0.683418 0.683418C1.121 0.245833 1.71449 0 2.33333 0H5.44444C5.65072 0 5.84855 0.0819442 5.99442 0.227806C6.14028 0.373667 6.22222 0.571498 6.22222 0.777778C6.22222 0.984057 6.14028 1.18189 5.99442 1.32775C5.84855 1.47361 5.65072 1.55556 5.44444 1.55556H2.33333C2.12705 1.55556 1.92922 1.6375 1.78336 1.78336C1.6375 1.92922 1.55556 2.12705 1.55556 2.33333V11.6667C1.55556 11.8729 1.6375 12.0708 1.78336 12.2166C1.92922 12.3625 2.12705 12.4444 2.33333 12.4444H11.6667C11.8729 12.4444 12.0708 12.3625 12.2166 12.2166C12.3625 12.0708 12.4444 11.8729 12.4444 11.6667V8.55556C12.4444 8.34928 12.5264 8.15145 12.6722 8.00558C12.8181 7.85972 13.0159 7.77778 13.2222 7.77778C13.4285 7.77778 13.6263 7.85972 13.7722 8.00558C13.9181 8.15145 14 8.34928 14 8.55556V11.6667C14 12.2855 13.7542 12.879 13.3166 13.3166C12.879 13.7542 12.2855 14 11.6667 14Z" fill="#1F1F1F"/>
<path d="M14 0.816681V4.70557C13.9992 4.85912 13.953 5.00901 13.8672 5.13635C13.7814 5.26369 13.6598 5.36278 13.5178 5.42113C13.4255 5.46467 13.3243 5.48598 13.2222 5.48335C13.1199 5.48394 13.0184 5.46432 12.9236 5.42561C12.8289 5.38691 12.7427 5.32988 12.67 5.25779L11.2389 3.8889L7.51334 7.61446C7.44104 7.68736 7.35502 7.74522 7.26024 7.78471C7.16546 7.82419 7.0638 7.84452 6.96112 7.84452C6.85844 7.84452 6.75678 7.82419 6.66201 7.78471C6.56723 7.74522 6.4812 7.68736 6.4089 7.61446C6.336 7.54215 6.27814 7.45613 6.23865 7.36135C6.19916 7.26657 6.17883 7.16491 6.17883 7.06224C6.17883 6.95956 6.19916 6.8579 6.23865 6.76312C6.27814 6.66834 6.336 6.58232 6.4089 6.51001L10.1111 2.76113L8.74223 1.3689C8.63037 1.26215 8.55287 1.12448 8.51962 0.973479C8.48637 0.822474 8.49889 0.664985 8.55557 0.521126C8.6176 0.368855 8.72629 0.240159 8.86603 0.153519C9.00577 0.0668796 9.16937 0.0267535 9.33334 0.0389033H13.2222C13.2866 0.0277223 13.3523 0.0277223 13.4167 0.0389033C13.4526 0.0319739 13.4896 0.0319739 13.5256 0.0389033C13.6189 0.0756663 13.7036 0.131234 13.7745 0.20215C13.8455 0.273067 13.901 0.357815 13.9378 0.451125C13.9447 0.487091 13.9447 0.524049 13.9378 0.560014C13.9784 0.63949 13.9997 0.727424 14 0.816681Z" fill="#1F1F1F"/>
</svg>
